<mxfile host="app.diagrams.net" modified="2024-03-09T06:41:54.776Z" agent="Mozilla/5.0 (Windows NT 10.0; Win64; x64) AppleWebKit/537.36 (KHTML, like Gecko) Chrome/122.0.0.0 Safari/537.36" version="24.0.2" etag="gDPbfp8IdagGlw48E_Ki" type="github">
  <diagram name="第 1 页" id="xwwp5zCgZInJpn2L9VEI">
    <mxGraphModel>
      <root>
        <mxCell id="0" />
        <mxCell id="1" parent="0" />
      </root>
    </mxGraphModel>
  </diagram>
</mxfile>
